# xmcd CD database file
#
# Track frame offsets:
#	150
#	19110
#	33682
#	53302
#	71442
#	94142
#	117822
#	128352
#	142477
#	157640
#	183270
#	204042
#
# Disc length: 2903 seconds
#
# Revision: 0
# Processed by: cddbd v1.5PL3 Copyright (c) Steve Scherf et al.
# Submitted via: CDex 1.51
#
DISCID=910b550c
DTITLE=Frankie Lee - Going Back Home
DYEAR=1994
DGENRE=Blues
TTITLE0=Finders Keeperd
TTITLE1=Too Busy Thinking about My Baby
TTITLE2=One Stone at a Time
TTITLE3=What's the Matter, Baby?
TTITLE4=Don't Make Me Cry
TTITLE5=Got to Keep on Movin'
TTITLE6=Let the Good Times Roll
TTITLE7=The Love You Save Today
TTITLE8=Ain't That Peculiar?
TTITLE9=Rock My Soul
TTITLE10=Goin' Back Home
TTITLE11=Party Down
EXTD=YEAR: 1994
EXTT0=
EXTT1=
EXTT2=
EXTT3=
EXTT4=
EXTT5=
EXTT6=
EXTT7=
EXTT8=
EXTT9=
EXTT10=
EXTT11=
PLAYORDER=
